<svg xmlns="http://www.w3.org/2000/svg" viewBox="0 0 32 32" fill="none">
  <defs>
    <linearGradient id="g" x1="0" y1="0" x2="32" y2="32" gradientUnits="userSpaceOnUse">
      <stop offset="0" stop-color="#1769BD"/>
      <stop offset="1" stop-color="#4795DE"/>
    </linearGradient>
  </defs>
  <rect width="32" height="32" rx="8" fill="url(#g)"/>
  <path d="M19.6 10.4c-.9-.9-2.2-1.4-3.6-1.4-2.6 0-4.7 1.9-4.7 4.2 0 1.8 1.2 3 3.6 3.7l1.6.5c1.7.5 2.4 1 2.4 1.9 0 1-.9 1.7-2.3 1.7-1.2 0-2.2-.5-2.9-1.4l-1.6 1.5c1 1.3 2.6 2.1 4.5 2.1 2.8 0 4.7-1.6 4.7-3.9 0-1.9-1.2-3.1-3.7-3.8l-1.5-.4c-1.6-.5-2.3-1-2.3-1.9 0-1 .9-1.7 2.2-1.7 1 0 1.9.4 2.5 1.1l1.1-2.2z" fill="#fff"/>
</svg>
